# xmcd
# 
# Track frame offsets:
#     150
#     16562
#     36375
#     56300
#     64512
# 
# Disc length: 1019
# 
# Revision: 0
# Processed by: cddbd v1.5.2PL0 Copyright (c) Steve Scherf et al.
# Submitted via: fre:ac v1.0.17
# 
DISCID=3103f905
DTITLE=Kula Shaker - Shower Your Love
DYEAR=1999
DGENRE=Rock
TTITLE0=Shower Your Love
TTITLE1=Goodbye
TTITLE2=Sound Of Drums (Live Radio 1 Session)
TTITLE3=The
TTITLE4=Light
EXTD=
EXTT0=
EXTT1=
EXTT2=
EXTT3=
EXTT4=
PLAYORDER=
